<?xml version="1.0" encoding="utf-8"?>
<!-- Generator: Adobe Illustrator 19.1.0, SVG Export Plug-In . SVG Version: 6.00 Build 0)  -->
<svg version="1.1" baseProfile="tiny" id="Layer_1" xmlns="http://www.w3.org/2000/svg" xmlns:xlink="http://www.w3.org/1999/xlink"
	 x="0px" y="0px" viewBox="0 0 110 110" xml:space="preserve">
<g>
	<polygon points="74.1,49.2 74.1,66.2 98.4,42.7 98.4,25.7 	"/>
	<polygon points="36.5,49.2 12.2,25.7 12.2,42.7 36.5,66.2 	"/>
	<polygon points="55.3,67.4 30.9,90.9 12.1,72.7 12.1,89.7 30.9,107.9 55.3,84.3 79.6,107.9 98.4,89.7 98.4,72.7 79.6,90.9 	"/>
	<polygon points="79.6,7.6 98.4,25.7 74.1,49.2 98.4,72.7 79.6,90.9 55.3,67.4 30.9,90.9 12.1,72.7 36.5,49.2 12.2,25.7 30.9,7.6 
		55.3,31.1 	"/>
	<polygon fill="#881811" points="74.1,43.8 74.1,60.7 98.4,37.2 98.4,20.2 	"/>
	<polygon fill="#881811" points="36.5,43.8 12.2,20.2 12.2,37.2 36.5,60.7 	"/>
	<polygon fill="#881811" points="55.3,61.9 30.9,85.4 12.1,67.3 12.1,84.2 30.9,102.4 55.3,78.9 79.6,102.4 98.4,84.2 98.4,67.3 
		79.6,85.4 	"/>
	<polygon fill="#E20D13" points="79.6,2.1 98.4,20.2 74.1,43.8 98.4,67.3 79.6,85.4 55.3,61.9 30.9,85.4 12.1,67.3 36.5,43.8 
		12.2,20.2 30.9,2.1 55.3,25.6 	"/>
</g>
</svg>
